<svg width="33" height="32" viewBox="0 0 33 32" fill="none" xmlns="http://www.w3.org/2000/svg">
<path d="M30.6 7.4C25.8 -4.76837e-07 16 -2.2 8.40005 2.4C1.00005 7 -1.39995 17 3.40005 24.4L3.80005 25L2.20005 31L8.20005 29.4L8.80005 29.8C11.4 31.2 14.2 32 17 32C20 32 23 31.2 25.6 29.6C33 24.8 35.2 15 30.6 7.4ZM26.4 22.8C25.6 24 24.6 24.8 23.2 25C22.4 25 21.4 25.4 17.4 23.8C14 22.2 11.2 19.6 9.20005 16.6C8.00005 15.2 7.40005 13.4 7.20005 11.6C7.20005 10 7.80005 8.6 8.80005 7.6C9.20005 7.2 9.60005 7 10 7H11C11.4 7 11.8 7 12 7.8C12.4 8.8 13.4 11.2 13.4 11.4C13.6 11.6 13.6 12 13.4 12.2C13.6 12.6 13.4 13 13.2 13.2C13 13.4 12.8 13.8 12.6 14C12.2 14.2 12 14.6 12.2 15C13 16.2 14 17.4 15 18.4C16.2 19.4 17.4 20.2 18.8 20.8C19.2 21 19.6 21 19.8 20.6C20 20.2 21 19.2 21.4 18.8C21.8 18.4 22 18.4 22.4 18.6L25.6 20.2C26 20.4 26.4 20.6 26.6 20.8C26.8 21.4 26.8 22.2 26.4 22.8Z" fill="white"/>
</svg>
