<svg width="40" height="24" viewBox="0 0 40 24" fill="none" xmlns="http://www.w3.org/2000/svg">
<path fill-rule="evenodd" clip-rule="evenodd" d="M39.0833 1.91333C39.36 1.00333 39.0833 0.333328 37.7583 0.333328H33.3833C32.27 0.333328 31.7567 0.911662 31.4783 1.55C31.4783 1.55 29.2533 6.87666 26.1017 10.3367C25.0817 11.34 24.6183 11.6583 24.0617 11.6583C23.7833 11.6583 23.365 11.34 23.365 10.4283V1.91333C23.365 0.819995 23.0583 0.333328 22.1317 0.333328H15.2517C14.5567 0.333328 14.1383 0.839995 14.1383 1.32166C14.1383 2.35666 15.715 2.59666 15.8767 5.51V11.84C15.8767 13.2283 15.6217 13.48 15.065 13.48C13.5817 13.48 9.97333 8.12833 7.83167 2.00499C7.41667 0.813328 6.99667 0.333328 5.87833 0.333328H1.5C0.25 0.333328 0 0.911662 0 1.55C0 2.68666 1.48333 8.33333 6.90833 15.8017C10.525 20.9017 15.6167 23.6667 20.255 23.6667C23.0367 23.6667 23.38 23.0533 23.38 21.995V18.14C23.38 16.9117 23.6433 16.6667 24.525 16.6667C25.175 16.6667 26.2867 16.9867 28.8833 19.445C31.85 22.36 32.3383 23.6667 34.0083 23.6667H38.3833C39.6333 23.6667 40.26 23.0533 39.9 21.84C39.5033 20.6333 38.0867 18.8817 36.2083 16.8033C35.1883 15.62 33.6583 14.345 33.1933 13.7067C32.545 12.8883 32.73 12.5233 33.1933 11.795C33.1933 11.795 38.5267 4.41833 39.0817 1.91333H39.0833Z" fill="white"/>
</svg>
